<svg width="180" height="60" viewBox="0 0 180 60" fill="none" xmlns="http://www.w3.org/2000/svg">
<path fill-rule="evenodd" clip-rule="evenodd" d="M59.6074 4.91278C63.0279 4.91278 64.1823 6.51477 63.2416 9.911L58.9874 25.461H53.1511L56.8282 11.9829C57.042 11.278 56.7213 10.744 55.9731 10.744H42.2055L43.8089 4.89142H59.6074V4.91278ZM26.9414 60H21.4259L26.6421 40.8829H32.1791L26.9414 60ZM5.15704 55.1086H20.9555C21.49 53.1648 22.0245 51.2211 22.5589 49.256C17.9412 49.256 13.2594 49.256 8.64169 49.256C7.87208 49.2132 7.74381 48.8074 7.89345 48.188L11.6133 34.539H5.75563L1.50137 50.089C0.582104 53.5279 1.75791 55.1086 5.15704 55.1086ZM21.9817 27.2552L20.4638 32.7875H1.3731L2.89095 27.2552H21.9817ZM18.8605 4.91278H34.6804L33.077 10.7654H19.5873C18.6253 10.7654 18.0053 11.1285 17.7488 12.047L14.0931 25.461H8.2355L12.4898 9.911C13.409 6.49341 15.4613 4.91278 18.8605 4.91278ZM38.1222 19.1385L43.3385 0H37.823L32.6067 19.1385H38.1222Z" fill="#F3F4F4"/>
<path fill-rule="evenodd" clip-rule="evenodd" d="M33.6546 26.2725C35.7283 26.2725 36.9468 27.9385 36.3696 29.9891C35.8138 32.061 33.676 33.7271 31.6023 33.7271C29.5286 33.7271 28.3314 32.061 28.9086 29.9891C29.4858 27.9385 31.6023 26.2725 33.6546 26.2725Z" fill="#CD3233"/>
<path fill-rule="evenodd" clip-rule="evenodd" d="M105.634 41.3318H108.798C113.309 41.3318 117.585 38.9181 118.867 34.2617C120 30.0965 117.884 27.2556 113.074 27.2556H104.009L102.834 31.549H111.534C116.473 31.549 114.656 37.4016 110.017 37.4016H104.608C102.427 37.4229 101.294 38.2773 100.781 40.1784L98.8145 47.3767H103.24L104.715 41.9726C104.843 41.5027 105.078 41.3318 105.634 41.3318Z" fill="#F3F4F4"/>
<path fill-rule="evenodd" clip-rule="evenodd" d="M42.1831 47.3553H51.7605C56.3141 47.3553 59.7988 45.5183 60.8035 41.8444C61.5518 39.089 60.5042 37.7433 58.4092 36.8462C60.0553 36.0345 61.6159 34.7743 62.2359 32.5102C63.262 28.7508 60.376 27.2556 57.0196 27.2556H44.2782L42.7603 32.7878H45.0478L45.4967 31.1431H55.2666C57.1479 31.1431 57.9816 31.8907 57.6182 33.215C57.1906 34.7529 55.7797 35.3937 53.8342 35.3937H50.9696L49.9648 39.0677H53.877C56.1645 39.0677 56.9341 39.9007 56.5706 41.2464C56.1431 42.8056 54.7749 43.4892 52.8081 43.4892H47.549L50.6061 32.2966H46.2877L42.1831 47.3553Z" fill="#F3F4F4"/>
<path fill-rule="evenodd" clip-rule="evenodd" d="M65.3983 31.378L66.5313 27.2341H82.2443L81.0685 31.5702H70.2511L70.8711 33.9625H66.0824L65.3983 31.378ZM75.2964 35.0732L74.1206 39.4093H64.5645L65.7403 35.0732H75.2964ZM62.1702 43.2113L61.0371 47.3552H76.7501L77.9259 43.0191H67.1085L69.1395 40.4773H64.3507L62.1702 43.2113Z" fill="#F3F4F4"/>
<path fill-rule="evenodd" clip-rule="evenodd" d="M98.4284 41.2454C99.3262 37.956 97.4663 35.1364 93.9603 35.1364H88.231C87.1834 35.1364 86.649 34.3034 86.9055 33.3209C87.1834 32.3383 88.1882 31.5053 89.2143 31.5053H100.117L101.293 27.2119H90.3902C86.9269 27.2119 83.5277 30.0101 82.6085 33.3209C81.7106 36.5889 83.5491 39.4298 87.0552 39.4298H92.7845C93.8534 39.4298 94.3879 40.2415 94.11 41.2454C93.832 42.2493 92.8486 43.061 91.8011 43.061H80.5562L79.3804 47.3543H90.6253C94.11 47.3543 97.5091 44.5775 98.4284 41.2454Z" fill="#F3F4F4"/>
<path fill-rule="evenodd" clip-rule="evenodd" d="M126.969 47.6102C121.111 47.6102 117.968 42.8683 119.465 37.3575C120.983 31.7612 126.712 26.9766 132.591 26.9766C138.577 26.9766 141.677 31.7612 140.159 37.3575C138.62 42.9751 132.826 47.6102 126.969 47.6102ZM131.394 31.334C128.08 31.334 124.895 34.1962 124.04 37.3148C123.206 40.3265 124.831 43.2101 128.144 43.2101C131.458 43.2101 134.707 40.4547 135.563 37.3148C136.418 34.1962 134.814 31.334 131.394 31.334Z" fill="#F3F4F4"/>
<path fill-rule="evenodd" clip-rule="evenodd" d="M156.172 27.2341H161.859L150.849 37.2092L157.177 47.3765H151.234L144.992 37.3587L156.172 27.2341ZM145.398 39.6229L144.008 37.3587L146.68 34.9451L148.776 27.2555H144.372L138.877 47.3765H143.281L145.398 39.6229Z" fill="#F3F4F4"/>
<path fill-rule="evenodd" clip-rule="evenodd" d="M162.991 31.378L164.102 27.2341H179.837L178.661 31.5702H167.822L168.421 33.9625H163.632L162.991 31.378ZM172.867 35.0732L171.691 39.4093H162.157L163.333 35.0732H172.867ZM159.762 43.2113L158.629 47.3552H174.342L175.518 43.0191H164.679L166.71 40.4986H161.922L159.762 43.2113Z" fill="#F3F4F4"/>
<path fill-rule="evenodd" clip-rule="evenodd" d="M162.994 51.2646L163.763 51.6918L163.058 54.3191L162.053 54.7463H151.385L152.347 51.2646H162.994Z" fill="#F3F4F4"/>
<path fill-rule="evenodd" clip-rule="evenodd" d="M166.433 51.7122L165.728 54.3181H163.248L163.975 51.7122H166.433Z" fill="#F3F4F4"/>
<path fill-rule="evenodd" clip-rule="evenodd" d="M172.806 53.0165C172.358 52.1834 168.274 51.8417 166.65 51.7776L165.987 54.234C167.633 54.1913 171.909 53.8495 172.806 53.0165Z" fill="#F3F4F4"/>
<path fill-rule="evenodd" clip-rule="evenodd" d="M152.11 51.2424L151.148 54.7882C151.127 54.8522 151.041 54.9163 150.977 54.9163C150.913 54.9163 150.849 54.8522 150.87 54.7882L151.832 51.2424C151.854 51.1783 151.939 51.1143 152.003 51.1143C152.068 51.1143 152.132 51.1783 152.11 51.2424Z" fill="#E6E6E5"/>
<path fill-rule="evenodd" clip-rule="evenodd" d="M103.923 53.6347L104.949 49.854H106.403L105.334 53.7415C105.077 54.66 105.505 54.8309 106.317 54.8309C107.13 54.8309 107.643 54.6813 107.899 53.7415L108.968 49.854H110.401L109.374 53.6347C108.84 55.5998 107.835 56.1765 105.954 56.1765C104.073 56.1765 103.367 55.5998 103.923 53.6347Z" fill="#F3F4F4"/>
<path fill-rule="evenodd" clip-rule="evenodd" d="M136.356 49.8757C136.891 49.8757 136.998 50.1107 137.19 50.4738L138.601 53.6137L139.627 49.8971H141.059L139.349 56.1769H138.622C138.173 56.1769 137.96 55.9847 137.789 55.6429L136.378 52.4389L135.351 56.1769H133.94L135.651 49.8971H136.356V49.8757Z" fill="#F3F4F4"/>
<path fill-rule="evenodd" clip-rule="evenodd" d="M75.6384 56.1555C73.7999 56.1555 72.7523 54.9167 73.2654 53.0156C73.7785 51.1146 75.5101 49.8757 77.3486 49.8757H79.743L79.3796 51.2428H76.9852C75.9377 51.2428 75.0184 51.969 74.7405 53.0156C74.4626 54.0836 74.9543 54.7885 76.0232 54.7885H76.9638L77.2418 53.7846H76.066L76.8783 52.7807H78.952L78.0328 56.1769H75.6384V56.1555Z" fill="#F3F4F4"/>
<path fill-rule="evenodd" clip-rule="evenodd" d="M51.3772 51.2866L50.3725 51.7138L49.667 54.3197L50.4366 54.7469H61.083L62.045 51.2866H51.3772Z" fill="#F3F4F4"/>
<path fill-rule="evenodd" clip-rule="evenodd" d="M47.6772 51.7122L46.9717 54.3181H49.4302L50.157 51.7122H47.6772Z" fill="#F3F4F4"/>
<path fill-rule="evenodd" clip-rule="evenodd" d="M40.6436 53.0165C41.4987 52.1834 45.7957 51.8417 47.4418 51.7776L46.7791 54.234C45.1544 54.1913 41.0497 53.8495 40.6436 53.0165Z" fill="#F3F4F4"/>
<path fill-rule="evenodd" clip-rule="evenodd" d="M62.2796 51.2424L61.3176 54.7882C61.2962 54.8522 61.3389 54.9163 61.4031 54.9163C61.4886 54.9163 61.5527 54.8522 61.5741 54.7882L62.5361 51.2424C62.5575 51.1783 62.5148 51.1143 62.4292 51.1143C62.3651 51.1143 62.301 51.1783 62.2796 51.2424Z" fill="#E6E6E5"/>
</svg>
