<svg width="330" height="70" viewBox="0 0 330 70" fill="none" xmlns="http://www.w3.org/2000/svg">
<path d="M6.034 13.182C4.564 13.182 3.332 12.706 2.338 11.754C1.358 10.788 0.868 9.57 0.868 8.1C0.868 6.63 1.358 5.412 2.338 4.46C3.318 3.494 4.55 3.018 6.034 3.018C7.042 3.018 7.924 3.242 8.694 3.676V5.23C7.896 4.712 7.014 4.46 6.048 4.46C5.026 4.46 4.158 4.81 3.472 5.496C2.786 6.182 2.45 7.05 2.45 8.1C2.45 9.15 2.8 10.032 3.486 10.718C4.186 11.404 5.054 11.74 6.104 11.74C7.21 11.74 8.148 11.446 8.904 10.844V12.398C8.092 12.916 7.14 13.182 6.034 13.182ZM18.6423 13H11.4883V3.2H18.4603V4.614H13.0283V7.064H17.4523V8.478H13.0283V11.586H18.6423V13ZM22.6971 13H21.1571V3.2H25.3711C26.3931 3.2 27.1911 3.466 27.7651 3.998C28.3531 4.516 28.6471 5.202 28.6471 6.042C28.6471 6.896 28.3531 7.596 27.7651 8.142C27.1911 8.688 26.3931 8.954 25.3711 8.954H22.6971V13ZM22.6971 4.614V7.54H25.2451C26.4071 7.54 27.0931 7.008 27.0931 6.07C27.0931 5.132 26.4071 4.614 25.2451 4.614H22.6971ZM32.4426 13H31.1266V3.2H32.6666V10.396L38.0566 3.2H39.4006V13H37.8606V5.776L32.4426 13ZM43.5817 13H41.7197L44.8417 8.688C43.4557 8.366 42.6577 7.344 42.6577 5.986C42.6577 4.306 43.8897 3.2 45.9057 3.2H50.3717V13H48.8317V8.856H46.5357L43.5817 13ZM45.9757 7.498H48.8317V4.614H45.9757C44.8697 4.614 44.2117 5.16 44.2117 6.056C44.2117 6.966 44.8697 7.498 45.9757 7.498Z" fill="white"/>
<mask id="mask0_300_3060" style="mask-type:luminance" maskUnits="userSpaceOnUse" x="0" y="32" width="330" height="31">
<path d="M0 32L0.0385679 55.5779L8.65207 62.5072L8.60065 38.3251H41.3062C42.2447 38.3894 42.7333 38.8265 42.759 39.6622V44.3674C42.759 45.1388 42.2319 45.5759 41.1905 45.6659H12.9717L21.2766 52.351H29.9159L43.0418 62.4944H55.9749L42.7847 51.8753H48.9556C50.794 51.8753 51.681 51.0526 51.6424 49.407L51.6039 34.6612C51.501 32.8871 50.3054 32 48.0428 32H0ZM66.3368 39.945C66.3368 38.8779 66.9539 38.3509 68.2395 38.3509H89.2976L99.261 46.1673H66.3497L66.3368 39.945ZM62.9557 32C60.0245 32 58.6875 33.4527 58.6875 36.4482L58.7004 56.3364L66.3754 62.5072L66.3625 52.5053L102.488 52.5438L102.501 56.1307L110.394 62.4815L110.381 52.4796L110.394 45.2031L93.5401 32H62.9557ZM112.4 32L112.425 55.5907L121.039 62.5201L121.013 38.3251H153.719C154.657 38.3894 155.146 38.8265 155.172 39.6622L155.184 44.3674C155.184 45.1388 154.657 45.5759 153.603 45.6659H125.371L133.676 52.351H161.355C163.181 52.351 164.042 51.5282 164.042 49.8827L164.017 34.6612C163.901 32.8871 162.705 32 160.443 32H112.4ZM165.251 32L173.041 38.3251H187.286L187.363 57.4034L193.881 62.5201L193.817 38.3251H216.88V32H165.251ZM226.471 45.2802L226.458 38.788H252.607L265.129 48.5971L265.116 55.1022H239.005L226.471 45.2802ZM223.385 32C220.647 32.3471 220.197 35.4068 220.03 36.191L220.043 42.6319L220.056 49.9084L236.139 62.5072H244.778H267.764C271.261 62.3144 271.415 59.1775 271.608 58.0462L271.595 51.2711L271.582 43.9689L256.284 32H223.385ZM274.012 32L274.038 55.5779L282.651 62.5072L282.613 38.3123H315.318C316.257 38.3766 316.745 38.8137 316.771 39.6493L316.784 44.3546C316.784 45.1259 316.27 45.5631 315.216 45.653H286.997L295.302 52.3382H303.941L317.067 62.4815H330L316.81 51.8625H322.981C324.819 51.8625 325.706 51.0397 325.668 49.3941L325.642 34.6483C325.513 32.8871 324.331 32 322.055 32H274.012Z" fill="white"/>
</mask>
<g mask="url(#mask0_300_3060)">
<path d="M329.987 32H0V62.5072H329.987V32Z" fill="white"/>
</g>
</svg>
